<svg data-name="Layer 2" xmlns="http://www.w3.org/2000/svg" viewBox="0 0 860.27 185.47"><defs><linearGradient id="white_logo_svg__a" x1="-1286.94" y1="4775.15" x2="-1101.48" y2="4775.15" gradientTransform="scale(-1 1) rotate(45 5008.683 3763.534)" gradientUnits="userSpaceOnUse"><stop offset="0" stop-color="#3888fc"></stop><stop offset="1" stop-color="#1d42cf"></stop></linearGradient><linearGradient id="white_logo_svg__b" x1="-1258.46" y1="4775.15" x2="-1129.96" y2="4775.15" gradientTransform="scale(-1 1) rotate(45 5008.683 3763.534)" gradientUnits="userSpaceOnUse"><stop offset="0" stop-color="#3888fc"></stop><stop offset="1" stop-color="#1d42cf"></stop></linearGradient><linearGradient id="white_logo_svg__c" x1="57" y1="95.35" x2="128.49" y2="95.35" gradientTransform="matrix(1 0 0 -1 0 188)" gradientUnits="userSpaceOnUse"><stop offset="0" stop-color="#3888fc"></stop><stop offset="1" stop-color="#1d42cf"></stop></linearGradient></defs><g data-name="Layer 1-2"><g opacity="0.1" fill="#2d6cea"><path d="M92.75 185.47c-24.79 0-48.08-9.64-65.58-27.14C9.66 140.82.02 117.53.02 92.75s9.64-48.08 27.14-65.59C44.67 9.66 67.96.02 92.75.02s48.08 9.64 65.58 27.14 27.14 40.8 27.14 65.58-9.64 48.08-27.14 65.58-40.8 27.14-65.58 27.14zm0-170.88c-43.1 0-78.16 35.07-78.16 78.17s35.06 78.16 78.16 78.16 78.16-35.06 78.16-78.16-35.07-78.17-78.16-78.17z"></path><path d="M92.75 156.99c-35.43 0-64.25-28.82-64.25-64.25S57.32 28.5 92.75 28.5 157 57.32 157 92.75 128.18 157 92.75 157zm0-113.93c-27.39 0-49.68 22.29-49.68 49.68s22.29 49.68 49.68 49.68 49.68-22.29 49.68-49.68-22.29-49.68-49.68-49.68z"></path><path d="M92.75 128.51c-19.72 0-35.76-16.04-35.76-35.76s16.04-35.76 35.76-35.76 35.76 16.04 35.76 35.76-16.04 35.76-35.76 35.76zm0-56.96c-11.69 0-21.2 9.51-21.2 21.2s9.51 21.2 21.2 21.2 21.2-9.51 21.2-21.2-9.51-21.2-21.2-21.2z"></path></g><path d="M32.33 160.45c-1.86 0-3.73-.71-5.15-2.13C9.65 140.79 0 117.5 0 92.75s9.65-48.04 27.18-65.57C44.71 9.65 67.99 0 92.75 0s48.04 9.65 65.57 27.18c17.53 17.53 27.18 40.81 27.18 65.57s-9.65 48.04-27.18 65.57c-2.84 2.84-7.46 2.84-10.3 0s-2.84-7.46 0-10.3c14.78-14.78 22.91-34.4 22.91-55.27s-8.14-40.49-22.91-55.27c-14.78-14.78-34.4-22.91-55.27-22.91s-40.49 8.14-55.27 22.91C22.7 52.26 14.57 71.88 14.57 92.75s8.14 40.49 22.91 55.27c2.84 2.84 2.84 7.46 0 10.3a7.269 7.269 0 01-5.15 2.13z" fill="url(#white_logo_svg__a)"></path><path d="M133.03 140.31c-1.86 0-3.73-.71-5.15-2.13-2.84-2.84-2.84-7.46 0-10.3 19.37-19.37 19.37-50.89 0-70.26s-50.89-19.37-70.26 0c-9.39 9.39-14.56 21.87-14.56 35.13s5.17 25.74 14.56 35.13c2.84 2.84 2.84 7.46 0 10.3s-7.46 2.84-10.3 0c-25.05-25.05-25.05-65.81 0-90.86 25.05-25.05 65.81-25.05 90.86 0 25.05 25.05 25.05 65.81 0 90.86a7.269 7.269 0 01-5.15 2.13z" fill="url(#white_logo_svg__b)"></path><path d="M112.89 120.17c-1.86 0-3.73-.71-5.15-2.13-2.84-2.84-2.84-7.46 0-10.3 4.01-4.01 6.22-9.33 6.22-14.99 0-3.24-.72-6.37-2.1-9.21L97.7 97.7c-1.37 1.37-3.22 2.13-5.15 2.13s-3.78-.77-5.15-2.13L73.52 83.82c-3.63 7.84-2.22 17.46 4.24 23.91 2.84 2.84 2.84 7.46 0 10.3-2.84 2.84-7.46 2.84-10.3 0-13.94-13.94-13.94-36.63 0-50.58 1.37-1.37 3.22-2.13 5.15-2.13s3.78.77 5.15 2.13l14.79 14.79 14.98-14.98a7.296 7.296 0 0110.12-.18c.13.12.26.25.39.37 13.94 13.94 13.94 36.63 0 50.58a7.269 7.269 0 01-5.15 2.13z" fill="url(#white_logo_svg__c)"></path><g fill="#1f2f59"></g></g></svg>
